<?xml version="1.0" standalone="no"?>
<!DOCTYPE svg PUBLIC "-//W3C//DTD SVG 20010904//EN"
 "http://www.w3.org/TR/2001/REC-SVG-20010904/DTD/svg10.dtd">
<svg version="1.0" xmlns="http://www.w3.org/2000/svg"
 width="225.000000pt" height="225.000000pt" viewBox="0 0 225.000000 225.000000"
 preserveAspectRatio="xMidYMid meet">
<metadata>
Created by potrace 1.16, written by Peter Selinger 2001-2019
</metadata>
<g transform="translate(0.000000,225.000000) scale(0.100000,-0.100000)"
fill="#000000" stroke="none">
<path d="M1242 2208 c-8 -8 -12 -46 -12 -106 l0 -93 -36 -15 -37 -16 -68 68
c-55 55 -71 66 -91 61 -31 -8 -238 -219 -238 -243 0 -10 29 -48 65 -84 l66
-66 -16 -37 -15 -37 -93 0 c-59 0 -97 -4 -105 -12 -8 -8 -12 -55 -12 -145 l0
-133 -40 -25 c-22 -14 -43 -25 -47 -25 -3 0 -37 29 -74 65 -37 36 -73 65 -80
65 -21 0 -249 -234 -249 -255 0 -11 29 -47 66 -82 l66 -62 -13 -35 -13 -36
-92 0 c-71 0 -96 -4 -108 -16 -13 -13 -16 -44 -16 -183 0 -116 4 -171 12 -179
8 -8 46 -12 106 -12 l93 0 15 -36 15 -36 -65 -68 c-36 -37 -66 -76 -66 -86 0
-10 51 -69 113 -131 82 -82 120 -113 137 -113 17 0 46 21 90 64 l65 64 32 -14
33 -14 0 -88 c0 -48 4 -93 8 -100 7 -9 52 -12 193 -10 l184 3 3 96 3 96 36 17
36 17 66 -65 c38 -38 75 -66 87 -66 26 0 244 220 244 246 0 10 -29 48 -65 84
l-65 66 22 61 c25 68 17 93 -28 93 -26 0 -30 -5 -62 -80 -39 -92 -41 -86 29
-156 l64 -64 -72 -72 -72 -72 -66 63 c-36 35 -71 61 -78 58 -6 -3 -41 -18 -77
-32 -36 -15 -71 -34 -77 -43 -8 -10 -13 -48 -13 -99 l0 -83 -105 0 -105 0 0
89 c0 59 -4 92 -12 99 -7 5 -42 22 -78 37 -36 15 -71 29 -77 32 -7 3 -42 -23
-78 -58 l-66 -63 -71 72 -72 71 63 61 c50 48 62 65 58 83 -11 45 -56 142 -73
154 -11 8 -48 13 -96 13 l-78 0 0 105 0 105 83 0 c45 0 87 4 93 8 12 7 74 148
74 167 0 5 -28 38 -62 72 l-63 63 73 72 72 73 63 -63 c34 -34 71 -62 81 -62
11 0 40 13 65 28 43 26 51 27 144 24 l99 -3 14 -36 c15 -34 14 -37 -11 -63
-20 -21 -39 -29 -81 -33 -158 -16 -292 -145 -313 -302 -27 -199 98 -370 298
-407 54 -10 63 -10 81 7 40 37 16 69 -59 78 -144 17 -255 156 -238 300 8 65
54 144 106 185 78 60 78 60 215 -77 67 -66 128 -121 136 -121 8 0 28 14 46 31
l32 31 6 -45 c10 -69 -8 -134 -57 -204 -20 -28 -27 -48 -22 -62 7 -22 34 -35
56 -26 23 9 79 98 95 150 18 62 18 161 -1 214 -16 46 -15 46 32 29 l33 -12 0
-98 c0 -86 2 -98 19 -108 11 -6 88 -10 180 -10 197 0 191 -4 191 124 l0 92 36
13 36 13 67 -66 c37 -36 73 -66 82 -66 19 0 249 232 249 251 0 7 -30 43 -66
80 l-66 67 12 36 12 36 93 0 c72 0 97 4 109 16 13 13 16 44 16 183 0 116 -4
171 -12 179 -8 8 -47 12 -108 12 l-96 0 -13 36 -13 35 66 69 c36 37 66 74 66
81 0 21 -232 249 -254 249 -13 0 -46 -27 -84 -67 l-63 -66 -34 16 -35 17 0 93
c0 59 -4 97 -12 105 -8 8 -63 12 -183 12 -120 0 -175 -4 -183 -12z m288 -155
c0 -49 4 -93 8 -99 6 -10 107 -56 154 -71 12 -3 38 15 83 58 l66 63 72 -72 72
-72 -63 -59 c-34 -32 -62 -64 -62 -71 0 -8 14 -48 32 -91 36 -88 37 -89 146
-89 l72 0 0 -105 0 -105 -89 0 c-99 0 -93 4 -129 -80 -42 -96 -42 -95 29 -166
l64 -64 -73 -72 -72 -73 -63 63 c-34 34 -67 62 -72 62 -19 0 -160 -62 -167
-74 -4 -6 -8 -48 -8 -93 l0 -83 -105 0 -105 0 0 83 c0 45 -4 87 -8 93 -6 10
-108 57 -155 71 -14 4 -37 -12 -83 -58 l-64 -64 -72 72 -72 72 63 66 c43 45
61 71 58 83 -15 47 -61 148 -71 154 -6 4 -50 8 -98 8 l-88 0 0 105 0 105 83 0
c51 0 89 5 99 13 9 6 28 41 43 77 15 36 29 71 32 77 3 7 -23 42 -58 78 l-63
66 72 72 72 72 64 -64 c70 -70 63 -68 158 -29 88 38 88 38 88 139 l0 89 105 0
105 0 0 -87z"/>
<path d="M1311 1776 c-106 -35 -201 -132 -237 -244 -40 -126 5 -285 107 -376
69 -62 143 -89 244 -90 70 -1 89 3 147 31 84 39 142 97 181 181 28 58 32 77
31 147 -1 148 -72 263 -201 327 -54 26 -79 32 -146 35 -52 2 -98 -2 -126 -11z
m225 -96 c57 -24 105 -70 134 -127 21 -39 25 -62 25 -128 -1 -90 -14 -126 -74
-188 -51 -54 -104 -79 -182 -85 -56 -4 -75 -1 -120 20 -75 35 -114 70 -145
134 -112 230 125 476 362 374z"/>
</g>
</svg>
